<svg width="24" height="24" viewBox="0 0 24 24" fill="none" xmlns="http://www.w3.org/2000/svg">
<path d="M20 7C19.5858 7 19.25 6.66421 19.25 6.25C19.25 5.42157 18.5784 4.75 17.75 4.75C17.3358 4.75 17 4.41421 17 4C17 3.58579 17.3358 3.25 17.75 3.25C18.5784 3.25 19.25 2.57843 19.25 1.75C19.25 1.33579 19.5858 1 20 1C20.4142 1 20.75 1.33579 20.75 1.75C20.75 2.57843 21.4216 3.25 22.25 3.25C22.6642 3.25 23 3.58579 23 4C23 4.41421 22.6642 4.75 22.25 4.75C21.4216 4.75 20.75 5.42157 20.75 6.25C20.75 6.44891 20.671 6.63968 20.5303 6.78033C20.3897 6.92098 20.1989 7 20 7Z" fill="#475569"/>
<path d="M4 23C3.58579 23 3.25 22.6642 3.25 22.25C3.25 21.4216 2.57843 20.75 1.75 20.75C1.33579 20.75 1 20.4142 1 20C1 19.5858 1.33579 19.25 1.75 19.25C2.57843 19.25 3.25 18.5784 3.25 17.75C3.25 17.3358 3.58579 17 4 17C4.41421 17 4.75 17.3358 4.75 17.75C4.75 18.5784 5.42157 19.25 6.25 19.25C6.66421 19.25 7 19.5858 7 20C7 20.4142 6.66421 20.75 6.25 20.75C5.42157 20.75 4.75 21.4216 4.75 22.25C4.75 22.6642 4.41421 23 4 23Z" fill="#475569"/>
<path d="M17 23C16.4477 23 16 22.5523 16 22C16 19.7909 14.2091 18 12 18C11.4477 18 11 17.5523 11 17C11 16.4477 11.4477 16 12 16C14.2091 16 16 14.2091 16 12C16 11.4477 16.4477 11 17 11C17.5523 11 18 11.4477 18 12C18 14.2091 19.7909 16 22 16C22.5523 16 23 16.4477 23 17C23 17.5523 22.5523 18 22 18C19.7909 18 18 19.7909 18 22C18 22.5523 17.5523 23 17 23Z" fill="#94A3B8"/>
<path d="M7 13C6.44772 13 6 12.5523 6 12C6 9.79086 4.20914 8 2 8C1.64273 8 1.31261 7.8094 1.13397 7.5C0.955342 7.1906 0.955342 6.8094 1.13397 6.5C1.31261 6.1906 1.64273 6 2 6C4.20914 6 6 4.20914 6 2C6 1.44772 6.44772 1 7 1C7.55228 1 8 1.44772 8 2C8 4.20914 9.79086 6 12 6C12.5523 6 13 6.44772 13 7C13 7.55228 12.5523 8 12 8C9.79086 8 8 9.79086 8 12C8 12.5523 7.55228 13 7 13Z" fill="#94A3B8"/>
</svg>
