<svg width="26" height="26" viewBox="0 0 26 26" fill="none" xmlns="http://www.w3.org/2000/svg">
<path opacity="0.4" d="M18.642 0H7.371C2.964 0 0 3.09399 0 7.69598V18.317C0 22.906 2.964 26 7.371 26H18.642C23.049 26 26 22.906 26 18.317V7.69598C26 3.09399 23.049 0 18.642 0Z" fill="#A6D4FF"/>
<path d="M16.6474 14.9459L14.2015 12.5012L16.646 10.0566C17.1162 9.5877 17.1162 8.82461 16.646 8.35576C16.1758 7.88279 15.4155 7.88416 14.9453 8.35439L12.4995 10.7991L10.0536 8.35164C9.58347 7.88141 8.82181 7.88416 8.35161 8.35164C7.8828 8.82186 7.8828 9.58495 8.35161 10.0539L10.7988 12.5012L8.35711 14.9417C7.88692 15.412 7.88692 16.175 8.35711 16.6425C8.59221 16.879 8.8988 16.9959 9.20676 16.9959C9.5161 16.9959 9.82266 16.879 10.0578 16.6439L12.4995 14.202L14.9467 16.648C15.1818 16.8831 15.4884 17 15.7963 17C16.1043 17 16.4123 16.8818 16.6474 16.648C17.1175 16.1778 17.1175 15.4161 16.6474 14.9459Z" fill="white"/>
</svg>
