<svg width="24" height="24" viewBox="0 0 24 24" fill="none" xmlns="http://www.w3.org/2000/svg">
<path fill-rule="evenodd" clip-rule="evenodd" d="M0.279667 13L0.051 13.686C0.017 13.787 0 13.893 0 14V22C0 22.552 0.448 23 1 23H23C23.552 23 24 22.552 24 22V14C24 13.893 23.983 13.787 23.949 13.686L23.7203 13H21.612H16V17H8V13H2.387H0.279667Z" fill="#94A3B8"/>
<path fill-rule="evenodd" clip-rule="evenodd" d="M21 4H3L0 13H8V17H16V13H24L21 4Z" fill="#475569"/>
<path d="M13 1V8H16L12 13L8 8H11V1H13Z" fill="#94A3B8"/>
</svg>
