<svg width="24" height="24" viewBox="0 0 24 24" fill="none" xmlns="http://www.w3.org/2000/svg">
<path fill-rule="evenodd" clip-rule="evenodd" d="M18.0001 12C18.0001 10.3431 19.3432 9 21.0001 9C22.6569 9 24.0001 10.3431 24.0001 12C24.0001 13.6569 22.6569 15 21.0001 15C20.5544 14.9978 20.1149 14.8953 19.7142 14.7001L12.7072 21.7071L11.293 20.2929L18.3 13.2859C18.1048 12.8852 18.0023 12.4457 18.0001 12Z" fill="#475569"/>
<path fill-rule="evenodd" clip-rule="evenodd" d="M10.7142 18.2999L4.70718 12.2928L3.29297 13.7071L9.30001 19.7141C9.10478 20.1148 9.00227 20.5543 9.00008 21C9.00008 22.6568 10.3432 24 12.0001 24C13.6569 24 15.0001 22.6568 15.0001 21C15.0001 19.3431 13.6569 18 12.0001 18C11.5544 18.0021 11.1149 18.1047 10.7142 18.2999Z" fill="#94A3B8"/>
<path fill-rule="evenodd" clip-rule="evenodd" d="M12.7071 3.70706L11.2929 2.29285L4.28586 9.29988C3.88518 9.10466 3.4457 9.00215 3 8.99995C1.34315 8.99995 0 10.3431 0 12C0 13.6568 1.34315 15 3 15C4.65685 15 6 13.6568 6 12C5.99781 11.5543 5.89529 11.1148 5.70007 10.7141L12.7071 3.70706Z" fill="#475569"/>
<path fill-rule="evenodd" clip-rule="evenodd" d="M12 6C12.4457 5.99781 12.8852 5.89529 13.2859 5.70007L18.2924 10.7066C18.588 10.0888 19.0888 9.588 19.7066 9.29237L14.7001 4.28586C14.8953 3.88518 14.9978 3.4457 15 3C15 1.34315 13.6569 0 12 0C10.3431 0 9 1.34315 9 3C9 4.65685 10.3431 6 12 6Z" fill="#94A3B8"/>
</svg>
