<svg width="24" height="24" viewBox="0 0 24 24" fill="none" xmlns="http://www.w3.org/2000/svg">
<mask id="mask0_0_1687" style="mask-type:luminance" maskUnits="userSpaceOnUse" x="9" y="8" width="13" height="13">
<path fill-rule="evenodd" clip-rule="evenodd" d="M9.26294 8.34918H21.1359V20.1371H9.26294V8.34918Z" fill="white"/>
</mask>
<g mask="url(#mask0_0_1687)">
<path fill-rule="evenodd" clip-rule="evenodd" d="M13.1548 10.1961C13.2298 10.1167 13.259 10.0925 13.28 10.0624C14.3024 8.5934 15.7628 8.16148 17.4667 8.41937C19.4358 8.71771 20.6959 10.0749 21.0176 12.1515C21.094 12.644 21.1318 13.1384 21.1314 13.6361C21.1303 15.7037 21.127 17.7712 21.1359 19.8387C21.1373 20.0716 21.0791 20.14 20.8367 20.137C19.7367 20.124 18.6361 20.1241 17.536 20.137C17.2952 20.1397 17.2336 20.072 17.2348 19.8389C17.2438 17.9105 17.2407 15.9823 17.2387 14.0541C17.238 13.6159 17.2074 13.1804 17.0823 12.7561C16.6812 11.3948 15.1084 10.917 13.9884 11.8222C13.3832 12.311 13.1467 12.9574 13.1512 13.7183C13.1611 15.5372 13.1541 17.3561 13.1541 19.1751C13.1541 19.4138 13.1406 19.6531 13.1582 19.8903C13.1737 20.0965 13.0881 20.1363 12.8984 20.135C11.7778 20.1276 10.6574 20.1268 9.53705 20.1355C9.33368 20.137 9.26066 20.0964 9.26299 19.8762C9.2794 18.2367 9.28607 16.5964 9.28672 14.9567C9.28704 12.9388 9.28302 10.9212 9.2687 8.90355C9.26717 8.68264 9.31414 8.61732 9.5459 8.61985C10.6665 8.6322 11.7869 8.63038 12.9073 8.62112C13.1091 8.61922 13.1654 8.67908 13.159 8.87227C13.1451 9.28804 13.1548 9.70452 13.1548 10.1961Z" fill="#41CB83"/>
</g>
<mask id="mask1_0_1687" style="mask-type:luminance" maskUnits="userSpaceOnUse" x="3" y="8" width="5" height="13">
<path fill-rule="evenodd" clip-rule="evenodd" d="M3.23535 8.62024H7.13689V20.1377H3.23535V8.62024Z" fill="white"/>
</mask>
<g mask="url(#mask1_0_1687)">
<path fill-rule="evenodd" clip-rule="evenodd" d="M7.13213 14.3798C7.13213 16.198 7.12819 18.0164 7.13687 19.8347C7.13776 20.0605 7.0916 20.1409 6.84159 20.1377C5.73177 20.1231 4.62164 20.1265 3.51174 20.1356C3.30564 20.1373 3.23616 20.0866 3.2364 19.8734C3.24179 16.2068 3.24082 12.5405 3.23535 8.87406C3.23511 8.68308 3.2824 8.61926 3.48593 8.62108C4.61625 8.63059 5.74657 8.63177 6.87657 8.62029C7.10213 8.61784 7.13728 8.699 7.13639 8.89512C7.12948 10.7235 7.13245 12.5516 7.13213 14.3798Z" fill="#41CB83"/>
</g>
<path fill-rule="evenodd" clip-rule="evenodd" d="M5.21614 3.07916C6.7052 3.08075 7.6726 4.24199 7.31965 5.6041C7.053 6.63256 5.97269 7.22458 4.72577 7.02528C3.40141 6.81364 2.66311 5.54099 3.15115 4.31111C3.45577 3.54299 4.23531 3.07798 5.21614 3.07916Z" fill="#41CB83"/>
</svg>
