<svg width="84" height="92" viewBox="0 0 84 92" fill="none" xmlns="http://www.w3.org/2000/svg">
<path fill-rule="evenodd" clip-rule="evenodd" d="M1.85276 71.6391H4.46435C5.37777 71.6391 5.78942 71.7159 5.78942 72.7371C5.78942 73.7576 5.55798 74.077 4.51558 74.077H1.85276V71.6391ZM4.96611 79.6405C6.99863 79.6405 7.87333 79.0914 7.87333 76.9731C7.87333 75.761 7.61612 74.88 6.26527 74.7273V74.6765C7.4359 74.3959 7.64204 73.6559 7.64204 72.558C7.64204 70.453 6.68989 70.0701 4.79855 70.0701H0V79.6405H4.96611ZM1.85276 75.4679H4.69579C5.78943 75.4679 6.02072 75.7738 6.02072 76.8203C6.02072 77.9942 5.49319 78.0709 4.3869 78.0709H1.85276V75.4679Z" fill="white"/>
<path fill-rule="evenodd" clip-rule="evenodd" d="M13.8527 69.0235H15.1377V67.9001H13.8527V69.0235ZM11.2285 69.0235H12.5019V67.9001H11.2285V69.0235ZM15.3452 70.07V76.8708C15.3452 77.9051 14.8779 78.1471 13.1584 78.1471C11.37 78.1471 11.0098 77.8538 11.0098 76.8708V70.07H9.15723V76.8708C9.15723 79.5509 10.8938 79.717 13.1584 79.717C15.5122 79.717 17.1977 79.5378 17.1977 76.8708V70.07H15.3452Z" fill="white"/>
<path fill-rule="evenodd" clip-rule="evenodd" d="M26.7167 70.0701H24.5812L22.2527 74.1533H22.2141L19.9239 70.0701H17.814L21.3005 75.9653V79.6405H23.1535V75.9653L26.7167 70.0701Z" fill="white"/>
<path fill-rule="evenodd" clip-rule="evenodd" d="M32.0413 69.0235H33.3262V67.9001H32.0413V69.0235ZM29.4171 69.0235H30.6905V67.9001H29.4171V69.0235ZM33.534 70.07V76.8708C33.534 77.9051 33.0666 78.1471 31.3467 78.1471C29.5586 78.1471 29.1983 77.8538 29.1983 76.8708V70.07H27.3457V76.8708C27.3457 79.5509 29.0824 79.717 31.3467 79.717C33.7009 79.717 35.3863 79.5378 35.3863 76.8708V70.07H33.534Z" fill="white"/>
<path fill-rule="evenodd" clip-rule="evenodd" d="M38.8461 70.0701H36.9932V79.6405H38.8461V75.5438H39.7075L43.258 79.6405H45.5997L41.2901 74.7404L45.2012 70.0701H42.9241L39.7075 73.9747H38.8461V70.0701Z" fill="white"/>
<path fill-rule="evenodd" clip-rule="evenodd" d="M50.0492 79.7928L48.5823 80.6741L48.9299 81.2609L50.6144 80.5971L50.0492 79.7928ZM45.7007 76.5902V77.0372C45.7007 79.7809 47.6039 79.7169 49.7401 79.7169C52.223 79.7169 53.5094 79.4878 53.5094 76.7945C53.5094 74.3577 52.6987 74.204 49.7272 74.0248C47.8492 73.911 47.6039 73.8722 47.6039 72.6981C47.6039 71.6779 47.9002 71.4992 49.7401 71.4992C51.0391 71.4992 51.4639 71.5375 51.4639 72.5709V72.8771H53.3166V72.5709C53.3166 70.0568 51.7081 69.9927 49.7401 69.9927C47.4249 69.9927 45.7516 70.0699 45.7516 72.6981C45.7516 75.4801 47.3988 75.4042 49.4827 75.5314C50.9237 75.6076 51.6568 75.4296 51.6568 76.7945C51.6568 77.905 51.4256 78.2109 49.7401 78.2109C48.0291 78.2109 47.5534 78.1347 47.5534 77.0372V76.5902H45.7007Z" fill="white"/>
<path fill-rule="evenodd" clip-rule="evenodd" d="M56.4408 71.6391H61.2004V70.0701H54.5884V79.6405H61.2394V78.0709H56.4408V75.5315H60.9561V74.025H56.4408V71.6391Z" fill="white"/>
<path fill-rule="evenodd" clip-rule="evenodd" d="M70.8075 70.0701H68.9553V73.987H64.4649V70.0701H62.6123V79.6405H64.4649V75.5566H68.9553V79.6405H70.8075V70.0701Z" fill="white"/>
<path fill-rule="evenodd" clip-rule="evenodd" d="M72.7203 69.7892H73.9942V68.6659H72.7203V69.7892ZM72.4375 79.6404H74.2898V70.0699H72.4375V79.6404Z" fill="white"/>
<path fill-rule="evenodd" clip-rule="evenodd" d="M77.7098 74.9059V71.6391H80.2829C81.6082 71.6391 81.8523 71.882 81.8523 73.2346C81.8523 74.6385 81.518 74.9059 80.1543 74.9059H77.7098ZM80.5533 76.4755C81.4413 76.4881 81.775 77.0504 81.775 77.8537V79.6405H83.6276V77.8537C83.6276 76.5012 83.3061 75.7992 81.9941 75.685V75.633C83.6277 75.391 83.7049 74.3577 83.7049 72.9408C83.7049 70.7718 82.8943 70.1204 80.7842 70.0701H75.8569V79.6405H77.7098V76.4755H80.5533Z" fill="white"/>
<path fill-rule="evenodd" clip-rule="evenodd" d="M21.6133 57.5734H22.8107V56.7388H21.6133V57.5734ZM21.627 66.2317H22.7836V57.7763H21.627V66.2317Z" fill="white"/>
<path fill-rule="evenodd" clip-rule="evenodd" d="M32.0008 57.7762H25.6251V58.6219H30.8189L25.4663 65.3964V66.2316H32.1145V65.3853H26.6366L32.0008 58.6672V57.7762Z" fill="white"/>
<path fill-rule="evenodd" clip-rule="evenodd" d="M43.3683 58.4975H43.3909V66.2316H44.3572V57.7762H42.6864L39.6629 65.014L36.6514 57.7762H34.981V66.2316H35.9468V58.4975H35.9694L39.197 66.2316H40.1517L43.3683 58.4975Z" fill="white"/>
<path fill-rule="evenodd" clip-rule="evenodd" d="M47.7349 57.5734H48.9322V56.7388H47.7349V57.5734ZM47.748 66.2317H48.905V57.7763H47.748V66.2317Z" fill="white"/>
<path fill-rule="evenodd" clip-rule="evenodd" d="M53.0412 62.0035V58.6219H56.0188C57.5422 58.6219 57.6902 59.0274 57.6902 60.1095C57.6902 61.5075 57.5083 61.9585 56.0188 62.0035H53.0412ZM53.0412 62.8494H56.144C57.3148 62.8494 57.576 63.3676 57.576 64.4383V66.2316H58.5424V63.9876C58.5424 63.0742 58.1219 62.5336 57.1676 62.4653V62.443C58.5192 62.2743 58.6559 61.3948 58.6559 60.2114C58.6559 58.2832 57.8488 57.7762 56.0077 57.7762H52.0757V66.2316H53.0412V62.8494Z" fill="white"/>
<path fill-rule="evenodd" clip-rule="evenodd" d="M4.66343 84.3225H7.57275C8.58412 84.3225 9.02772 84.4469 9.02772 85.5847C9.02772 86.9042 8.62977 87.1635 7.47074 87.1635H4.66343V84.3225ZM8.23213 91.9313C9.67549 91.9313 10.2436 91.0976 10.2436 89.5758C10.2436 88.5267 10.0618 87.7157 8.92511 87.5132V87.4901C9.81171 87.1973 9.99358 86.5994 9.99358 85.7091C9.99358 84.2323 9.61869 83.4772 8.01605 83.4772H3.69727V91.9313H8.23213ZM4.66343 88.0088H7.83433C9.10713 87.9867 9.2774 88.5491 9.2774 89.6661C9.2774 90.9625 8.76614 91.0865 7.72057 91.0865H4.66343V88.0088Z" fill="white"/>
<path fill-rule="evenodd" clip-rule="evenodd" d="M14.098 84.3225H18.6098V83.4772H13.1318V91.9313H18.6098V91.0865H14.098V87.9867H18.4168V87.1973H14.098V84.3225Z" fill="white"/>
<path fill-rule="evenodd" clip-rule="evenodd" d="M22.6214 83.4772H21.6553V91.9313H26.963V91.0865H22.6214V83.4772Z" fill="white"/>
<path fill-rule="evenodd" clip-rule="evenodd" d="M30.3504 84.3225H34.8622V83.4772H29.3843V91.9313H34.8622V91.0865H30.3504V87.9867H34.6689V87.1973H30.3504V84.3225Z" fill="white"/>
<path fill-rule="evenodd" clip-rule="evenodd" d="M38.7492 91.0865V84.3225H42.0902C43.7158 84.3225 43.8862 85.8893 43.8862 86.3628V88.5843C43.8634 90.0943 43.6362 91.0865 41.9313 91.0865H38.7492ZM37.7832 91.9313H42.1591C44.7161 91.9313 44.8525 89.5867 44.8525 88.753V86.7356C44.8525 83.6117 42.9657 83.4772 41.9313 83.4772H37.7832V91.9313Z" fill="white"/>
<path fill-rule="evenodd" clip-rule="evenodd" d="M47.9795 83.2736H49.1769V82.4399H47.9795V83.2736ZM47.9934 91.9313H49.1498V83.4772H47.9934V91.9313Z" fill="white"/>
<path fill-rule="evenodd" clip-rule="evenodd" d="M58.7869 83.4772H57.6395L55.1166 87.4339L52.5932 83.4772H51.4678L54.5929 88.4033V91.9313H55.5592V88.4033L58.7869 83.4772Z" fill="white"/>
<path fill-rule="evenodd" clip-rule="evenodd" d="M61.9248 84.3225H66.4363V83.4772H60.9585V91.9313H66.4363V91.0865H61.9248V87.9867H66.2433V87.1973H61.9248V84.3225Z" fill="white"/>
<path fill-rule="evenodd" clip-rule="evenodd" d="M72.1643 88.0314C73.7213 88.1558 74.4491 87.8849 74.4491 89.4969C74.4491 91.1538 73.9487 91.1538 72.1304 91.1538C70.3232 91.1538 69.9597 91.1538 69.9823 89.2939H69.0166C68.8348 91.7401 69.9597 92.0001 72.1304 92.0001C74.2788 92.0001 75.4151 91.9204 75.4151 89.531C75.4151 87.2424 74.3921 87.2985 72.369 87.1858C70.7779 87.1405 70.0046 87.2759 70.0046 85.6639C70.0046 84.4916 70.2665 84.2545 72.1533 84.2545C73.96 84.2545 74.2445 84.3109 74.29 85.788H75.256C75.3577 83.4885 74.0282 83.4092 72.1869 83.4092C70.0851 83.4092 69.0391 83.6118 69.0391 85.8669C69.0391 88.0991 70.4823 87.896 72.1643 88.0314Z" fill="white"/>
<path fill-rule="evenodd" clip-rule="evenodd" d="M78.3613 83.2736H79.5587V82.4399H78.3613V83.2736ZM78.3745 91.9313H79.5316V83.4772H78.3745V91.9313Z" fill="white"/>
<path fill-rule="evenodd" clip-rule="evenodd" d="M52.0136 51.8644C51.9975 51.9174 51.9596 51.9437 51.9561 52.017H51.8496C51.8128 52.057 51.8045 52.0971 51.8083 52.1761H51.5533V52.0231H51.4133C51.4191 51.8644 51.3062 51.7886 51.1754 51.7453C51.1153 51.7179 51.0062 51.8209 50.9452 51.8446C50.9001 51.8913 50.8796 51.9523 50.9203 52.017V52.0231H50.7882C50.7862 52.0765 50.783 52.1297 50.7803 52.1829H50.0076V52.0564C49.9585 52.0261 49.9331 52.0137 49.8351 52.017V52.0105C49.8689 51.959 49.8243 51.9343 49.7855 51.8907C49.825 51.8606 49.8021 51.2873 49.8021 51.1887C50.0171 51.1162 50.2005 51.0259 50.3693 50.9166C50.446 50.8509 50.5233 50.7844 50.5998 50.718V50.6585C50.5649 50.6424 50.2489 50.6228 50.1882 50.6319C50.1362 50.6427 50.0842 50.654 50.0325 50.6652C49.9642 50.6524 49.8897 50.6212 49.7938 50.612C49.7919 50.2898 49.7965 49.9179 49.8262 49.6377C49.8324 49.5825 49.7863 49.4166 49.8262 49.3528C49.8714 49.3207 49.967 49.3436 49.9991 49.3001C50.0076 49.2225 50.0155 49.1454 50.0238 49.0681C50.0453 49.0261 50.0629 49.0325 50.073 48.9753C50.0559 48.9606 50.0616 48.9624 50.0325 48.9554C50.0301 48.8798 50.0616 48.8587 50.1148 48.8294V48.7831H49.9662C50.0076 48.708 50.0482 48.6329 50.0899 48.5577C50.073 48.4984 50.0574 48.4386 50.0403 48.3791C50.0063 48.2525 49.9769 48.0673 50.0076 47.915C50.1107 47.3908 50.3004 47.1006 50.6242 46.7752C50.7014 46.6976 50.8066 46.5884 50.9203 46.5433C50.9934 46.5146 51.3623 46.7869 51.4304 46.8416C51.775 47.12 52.1818 47.6993 51.907 48.2396C51.8532 48.3453 51.7976 48.4477 51.6935 48.5114C51.726 48.6021 51.7588 48.6927 51.7918 48.7831H51.6852C51.682 48.7919 51.6796 48.8007 51.6769 48.8097C51.8006 48.9246 51.6903 49.1596 51.7918 49.2469C51.8241 49.2715 51.9448 49.2627 52.0057 49.2602C52.0057 49.8239 52.0136 50.4403 52.0136 51.0625V51.8644ZM47.8609 40.7191V42.2959C47.8023 42.4249 47.7948 42.5928 47.7948 42.7665H47.4006V42.5677L47.3269 42.5278C47.2942 42.5002 47.3078 42.3936 47.3097 42.3422H47.1951C47.1791 42.3099 47.1845 42.3048 47.137 42.2959C47.137 41.494 47.139 40.5384 47.137 39.8441L47.1951 39.8576L47.2196 39.8045C47.2645 39.7815 47.2928 39.786 47.343 39.8045C47.3471 39.7166 47.3905 39.6177 47.3596 39.5459L47.4334 39.4863C47.4156 39.4669 47.4206 39.4673 47.3843 39.4601L47.4334 39.3138C47.3516 39.2878 47.3043 39.2401 47.2695 39.175C47.1517 38.9566 47.4497 38.9303 47.5073 38.8039C47.3471 38.6402 47.1348 38.4592 47.4747 38.2736C47.6302 38.3354 47.8327 38.5079 47.7295 38.7245C47.7102 38.7645 47.6644 38.7755 47.6471 38.8237L47.7871 38.923C47.9295 39.0798 47.7788 39.249 47.6471 39.3138L47.697 39.4534L47.6222 39.4601C47.689 39.5426 47.6866 39.6595 47.672 39.7779C47.7226 39.7789 47.725 39.7855 47.7871 39.7846C47.8932 40.01 47.8609 40.3928 47.8609 40.7191ZM46.6848 42.3489H46.5946V42.5278L46.5208 42.5743C46.4869 42.6035 46.5016 42.7194 46.5043 42.7729H46.2494V42.5743L46.159 42.5278V42.3422H46.0354C46.0279 42.3045 46.0223 42.3029 45.978 42.2959C45.9774 41.4968 45.9807 40.514 45.978 39.8441L46.0354 39.8576C46.0546 39.8417 46.0616 39.8248 46.0687 39.7978C46.1151 39.7797 46.1555 39.7884 46.1995 39.8045C46.2482 39.723 46.2345 39.6096 46.2079 39.5459L46.2739 39.4996V39.4799L46.2331 39.4534L46.2821 39.3138C45.9889 39.2352 46.0922 38.9062 46.3317 38.8435L46.3565 38.8039C46.2212 38.6707 46.0506 38.6031 46.2079 38.3797C46.2408 38.3338 46.2675 38.2881 46.3395 38.2736C46.5765 38.4353 46.6815 38.5469 46.4963 38.8172L46.6443 38.9297C46.7508 39.0626 46.6625 39.2793 46.5043 39.3074L46.5455 39.4601H46.4793C46.5303 39.5564 46.5286 39.6437 46.529 39.7779C46.7537 39.7543 46.7099 40.1536 46.7099 40.3677V41.6399C46.7099 41.872 46.7288 42.1491 46.6848 42.3489ZM37.3683 42.3422H37.2449V42.5213L37.1545 42.5743V42.7729H36.8992V42.5743L36.8091 42.5346V42.3556L36.7186 42.3489C36.6551 42.0687 36.6937 41.6894 36.6937 41.3749C36.6937 40.8503 36.6476 40.2062 36.7596 39.7846C36.8213 39.7843 36.8328 39.7739 36.8747 39.7779C36.8754 39.6455 36.8644 39.5533 36.924 39.4601H36.8581L36.8992 39.3074C36.7355 39.28 36.658 39.0629 36.7596 38.9297L36.9075 38.8237C36.8851 38.785 36.8441 38.7635 36.8254 38.7309C36.7109 38.5302 36.9214 38.3033 37.0885 38.2736C37.3193 38.4449 37.3083 38.6587 37.0474 38.7973C37.2348 38.9852 37.5124 39.0733 37.1379 39.3138C37.1103 39.3285 37.1632 39.4283 37.1706 39.4663L37.1296 39.4799C37.1432 39.5077 37.1638 39.5202 37.1956 39.5328C37.1798 39.613 37.1515 39.6926 37.1956 39.7846C37.2184 39.809 37.2533 39.7882 37.3189 39.7846L37.3599 39.8576L37.4176 39.8374L37.4256 42.2959C37.3811 42.3032 37.3757 42.3044 37.3683 42.3422ZM36.2168 42.3422H36.0936C36.0991 42.4453 36.1127 42.5331 36.0196 42.5612C35.9921 42.6073 36.0007 42.7052 36.003 42.7729H35.6085C35.6085 42.5958 35.6023 42.4271 35.5425 42.2959V41.5937V40.0034C35.5659 39.9613 35.5984 39.8402 35.6085 39.7846C35.6757 39.7855 35.6798 39.7774 35.7315 39.7779C35.7018 39.6842 35.7229 39.531 35.7729 39.4663L35.7071 39.4601L35.7562 39.3207L35.6165 39.2345C35.4783 39.0727 35.6243 38.8992 35.7562 38.8306C35.7373 38.7729 35.6842 38.7572 35.6659 38.7046C35.59 38.4848 35.7705 38.3338 35.929 38.2736C36.2045 38.4135 36.1195 38.6723 35.896 38.7973C35.997 38.9125 36.2607 38.9938 36.1264 39.1947C36.092 39.2461 36.0429 39.2941 35.9701 39.3138L36.0196 39.4601C35.9885 39.4684 35.9873 39.4681 35.9701 39.4863L36.0441 39.5394C36.0185 39.6239 36.0256 39.7002 36.0358 39.7912C36.0761 39.8046 36.0955 39.7879 36.1593 39.7846C36.1772 39.8061 36.1862 39.8094 36.1921 39.8441C36.2248 39.8561 36.2233 39.855 36.2579 39.8441C36.2638 40.5384 36.2664 41.494 36.2661 42.2959C36.2233 42.3044 36.223 42.3044 36.2168 42.3422ZM33.5935 50.612C33.4984 50.6225 33.4226 50.6527 33.3552 50.6652L33.199 50.6319L33.0263 50.6518L32.8123 50.6386C32.7947 50.6614 32.7875 50.6693 32.7875 50.7114C32.9431 50.8956 33.2706 51.1311 33.5773 51.1819L33.5852 51.8644C33.5688 51.9433 33.518 51.9534 33.5523 52.017H33.4289C33.3872 52.0608 33.3756 52.095 33.3798 52.1829H32.607V52.0298L32.4668 52.0231C32.4854 51.9792 32.4922 51.9366 32.4833 51.8778C32.4063 51.8301 32.3232 51.7536 32.2205 51.7317C32.1076 51.8264 31.97 51.8279 31.9735 52.0231H31.8338V52.1761H31.579V52.0496C31.5367 52.0249 31.5147 52.0144 31.4309 52.017C31.4274 51.9437 31.3901 51.9174 31.3734 51.8644V51.0625C31.3734 50.4403 31.38 49.8239 31.3815 49.2602H31.5953C31.6425 49.159 31.6211 48.8544 31.694 48.8294C31.6871 48.7793 31.6587 48.7796 31.5953 48.7831L31.694 48.5179C31.5893 48.4055 31.4892 48.3006 31.4309 48.147C31.1552 47.423 31.9601 46.7683 32.4587 46.5301C32.8497 46.8739 33.1628 47.097 33.3304 47.6367C33.3809 47.7987 33.4124 48.0449 33.3715 48.2396L33.2977 48.5577L33.4208 48.7831H33.2728L33.3552 48.8958C33.3548 48.9511 33.3433 48.9482 33.3141 48.9753C33.3304 49.0491 33.3672 49.1736 33.3879 49.3001C33.4354 49.3267 33.4731 49.3416 33.5608 49.3398C33.6441 49.6241 33.5944 50.1804 33.5935 50.612ZM59.0846 54.9189V54.5351H57.7107V54.1375H52.9824C52.9843 54.0674 52.9885 53.9863 52.9581 53.9455C53.1058 53.8695 53.2402 53.7764 53.2949 53.627C53.3381 53.5084 53.2998 53.4922 53.262 53.4218C53.1704 53.2515 53.4745 53.1097 53.5989 53.0837V53.0306C53.613 53.0288 53.6265 53.0264 53.6408 53.0245C53.6485 53.0221 53.6562 53.02 53.6648 53.0178V53.0043C53.5854 52.9246 53.3157 52.9471 53.1386 52.9511V52.6931C53.1273 52.6686 53.078 52.6625 53.0973 52.607C53.1192 52.5777 53.1413 52.5486 53.1632 52.5208V52.2288C53.1172 52.2111 53.0699 52.1939 53.0233 52.1761V52.0367C52.9867 52.0162 52.9637 52.0083 52.892 52.0105C52.8901 51.9292 52.849 51.9152 52.8342 51.8644V50.0686C52.8394 49.8124 52.8452 49.5561 52.851 49.3001V49.2866C52.8813 49.2933 52.9108 49.3001 52.9409 49.3066C53.0957 49.2333 52.9967 49.0703 53.0401 48.9423C53.078 48.9025 53.1172 48.8629 53.1553 48.8227C53.1496 48.7965 53.1442 48.7699 53.1386 48.7433V48.2863V45.5628C53.122 45.528 53.1058 45.4907 53.1058 45.4236H53.1713C53.1746 45.4103 53.177 45.397 53.1798 45.384H53.2536C53.2593 45.3773 53.2652 45.3704 53.2705 45.3642C53.292 45.3139 53.2418 45.2757 53.2287 45.2247C53.3065 45.1355 53.5073 45.1543 53.5661 45.0591V44.9729C53.5464 44.9277 53.4978 44.9023 53.4346 44.8934C53.4318 44.889 53.429 44.8848 53.4264 44.8802V43.9196C53.2774 43.9335 53.2016 44.0476 53.1963 44.1777H53.089V44.3371C53.2045 44.3895 53.2818 44.4976 53.1798 44.6086C53.0945 44.6264 53.0208 44.6148 52.9497 44.5955C52.9096 44.54 52.9512 44.4897 52.9331 44.4296C52.9108 44.401 52.8894 44.3722 52.8672 44.3433C52.862 44.3409 52.8565 44.3391 52.851 44.3371C52.7616 44.4338 52.8012 44.5751 52.6613 44.6349C52.5963 44.6349 52.5665 44.626 52.5219 44.6152C52.4352 44.5201 52.4667 44.3568 52.6286 44.3433V44.1577H52.5053C52.4569 43.8144 52.0774 43.8332 52.0284 44.1514H51.8393C51.8306 43.3352 51.0128 42.6661 50.2355 42.4882C50.124 42.4625 49.934 42.1554 50.1047 42.0905V42.0174C50.0871 41.9944 50.0751 41.9917 50.0381 41.9845C50.0776 41.9182 50.2463 41.947 50.2929 41.8784C50.2965 41.8585 50.2985 41.8388 50.3015 41.8191C50.24 41.7817 50.1417 41.747 50.0629 41.726C50.0629 41.5829 49.9828 41.5007 50.0054 41.3749C50.0411 41.2733 50.0764 41.1718 50.1125 41.07C50.0551 40.9597 49.9975 40.8492 49.9397 40.7388C49.934 40.7367 49.9287 40.7344 49.9228 40.7322C49.8518 40.8425 49.7809 40.953 49.7097 41.0633C49.6792 41.1691 49.8934 41.4082 49.8324 41.5474C49.8029 41.6167 49.758 41.5909 49.7589 41.726C49.6933 41.7481 49.5719 41.7689 49.5285 41.8121C49.5223 41.8433 49.5268 41.8556 49.5371 41.885C49.6187 41.9073 49.7013 41.9294 49.7836 41.9515H49.7999C49.783 41.9926 49.7503 41.9838 49.7251 42.0174V42.0775C49.7438 42.1026 49.7557 42.1068 49.7999 42.1104C49.8586 42.4692 49.2527 42.6238 48.9527 42.7399C48.9527 42.5795 48.9294 42.6069 48.8702 42.5213C48.8738 42.4594 48.876 42.3974 48.8794 42.3356C48.8623 42.3223 48.846 42.3093 48.8296 42.2959V40.0164C48.846 40.01 48.8623 40.0034 48.8794 39.9967C48.8623 39.9525 48.846 39.9081 48.8296 39.864C48.8545 39.818 48.85 39.8286 48.9035 39.8175C48.9199 39.7419 48.9128 39.5316 48.945 39.493C48.9396 39.451 48.9411 39.4597 48.9035 39.4465V38.108C48.9035 37.9679 48.8567 37.7108 48.9859 37.6708C49.011 37.6225 48.9684 37.5925 48.9859 37.5316C49.0079 37.5006 49.0293 37.4699 49.052 37.4387C49.1421 37.4366 49.2325 37.4343 49.323 37.4321C49.3689 37.4167 49.3587 37.3816 49.4301 37.3725C49.4287 37.332 49.4212 37.3297 49.4625 37.3197C49.4524 37.2568 49.368 37.2045 49.3147 37.1738V36.1467C49.2494 36.1597 49.1687 36.194 49.1421 36.2394C49.1394 36.2549 49.1364 36.2705 49.1337 36.2859C49.15 36.2971 49.1668 36.3079 49.1828 36.3191C49.0889 36.3787 48.9844 36.3533 48.912 36.4316C48.9176 36.4537 48.9227 36.4757 48.9279 36.4978C48.9915 36.5068 49.0703 36.5078 49.1012 36.5443C49.1555 36.5888 49.1411 36.6716 49.1171 36.7296C49.0722 36.7535 49.0085 36.7802 48.9368 36.7628C48.9411 36.8239 48.9368 36.8405 48.8872 36.8689C48.8283 36.8818 48.7653 36.8818 48.7059 36.8689C48.683 36.8381 48.6716 36.8103 48.6734 36.7562C48.5569 36.7388 48.375 36.6713 48.501 36.5376C48.5453 36.4903 48.6458 36.4954 48.6893 36.4448C48.6565 36.3726 48.5804 36.338 48.4596 36.3389C48.4686 36.3044 48.509 36.2789 48.4844 36.2129C48.4345 36.1931 48.385 36.1733 48.3358 36.1532C48.2994 36.1207 48.1502 36.1862 48.1223 36.2394C48.1014 36.2774 48.1273 36.3083 48.1472 36.3322C48.0756 36.3796 47.9795 36.3609 47.9497 36.4448V36.4649C47.9768 36.4944 48.0857 36.5238 48.1223 36.5443C48.1458 36.6126 48.1409 36.6592 48.1145 36.7231C48.0669 36.75 48.0374 36.7652 47.9497 36.7628C47.9506 36.8051 47.9477 36.8284 47.9246 36.8491C47.8919 36.8985 47.7554 36.91 47.7027 36.8689C47.6596 36.85 47.6507 36.8195 47.6539 36.7628C47.5629 36.7652 47.5005 36.745 47.4723 36.6971C47.4262 36.6557 47.4538 36.5772 47.4895 36.5443C47.522 36.5033 47.5993 36.4945 47.6866 36.4978C47.689 36.4736 47.6923 36.4492 47.6946 36.425C47.6406 36.3784 47.5659 36.3397 47.4646 36.3322C47.4615 36.3277 47.4587 36.3232 47.4563 36.3191C47.4922 36.2975 47.505 36.2853 47.5058 36.2328C47.4511 36.2109 47.3959 36.1887 47.3415 36.1666C47.2873 36.1131 47.1517 36.194 47.1021 36.2461C47.1078 36.2949 47.1259 36.3038 47.1517 36.3322C47.0753 36.3847 46.9861 36.3787 46.938 36.4582C46.977 36.4944 47.0804 36.53 47.1271 36.5575C47.1587 36.6498 47.1244 36.6948 47.0695 36.7495C47.0053 36.7639 46.9737 36.7592 46.9217 36.7364C46.9318 36.7685 46.9424 36.8014 46.9297 36.8358C46.914 36.8513 46.8969 36.8665 46.8806 36.8824C46.8067 36.8955 46.7537 36.8918 46.6915 36.8757C46.66 36.8346 46.6472 36.7967 46.6503 36.7231C46.437 36.7984 46.3717 36.5549 46.6419 36.4848C46.6448 36.4627 46.6475 36.4406 46.6503 36.4185C46.5934 36.3769 46.5385 36.3379 46.4445 36.3255C46.4588 36.2868 46.4581 36.2663 46.4445 36.2262C46.396 36.1944 46.3292 36.1645 46.2562 36.1532C46.1847 36.1396 46.008 36.2068 45.9925 36.2727C46.0145 36.3058 46.0366 36.3143 46.0663 36.3389H46.0829C46.0044 36.3649 45.8947 36.3672 45.8279 36.3854C45.7924 36.4249 45.7832 36.45 45.8115 36.4978C45.9622 36.5171 46.0274 36.496 46.116 36.5709C46.1447 36.6749 46.0993 36.7377 46.0011 36.7628C45.9108 36.7335 45.8703 36.6851 45.7538 36.677C45.8138 36.7118 45.8745 36.7121 45.8939 36.7827V36.8093C45.8563 36.8818 45.6251 36.9357 45.499 36.8891C45.4448 36.8389 45.4888 36.3276 45.491 36.2262C45.455 36.2109 45.4199 36.1953 45.3839 36.1798V31.1174C45.4142 31.1151 45.4441 31.1127 45.4741 31.1111C45.5126 31.0731 45.5508 31.0356 45.5894 30.9981C45.6512 30.9571 45.7832 30.9241 45.8193 30.8655C45.8519 30.8353 45.8415 30.7941 45.8279 30.7528C45.79 30.7343 45.7646 30.7249 45.6965 30.7264C45.6908 30.7288 45.6852 30.7306 45.6803 30.7328C45.6546 30.7634 45.6446 30.7883 45.6467 30.8458C45.6031 30.8172 45.5591 30.7883 45.5153 30.7596C45.5543 30.8243 45.5578 30.8613 45.4336 30.8524C45.4469 30.8678 45.4607 30.8832 45.4741 30.8989C45.4633 30.9186 45.4527 30.9385 45.4416 30.9583C45.5104 30.9343 45.5508 30.8936 45.639 30.8854C45.6418 30.8897 45.6446 30.8942 45.6467 30.8989C45.5874 30.9592 45.5017 31.0676 45.3839 31.0775V30.7129H45.7538C45.8953 30.5624 45.8227 29.8132 45.8193 29.5401H45.8689V29.4806H45.3839C45.3846 29.0665 45.3197 28.5215 45.4087 28.1486C45.4157 28.1198 45.3771 28.1129 45.3839 28.0694C45.3995 27.9684 45.4342 27.8797 45.4741 27.8107V26.5585H45.3509V19.919H45.3919C45.4235 19.7867 45.4437 19.6174 45.4416 19.4352H45.5566C45.5841 19.4041 45.6119 19.3733 45.639 19.3422C45.4865 19.1735 45.8138 18.8708 45.9435 18.8187V18.2822C45.9153 18.2248 45.8884 18.1673 45.8611 18.1098H45.9102V17.6659H45.8279V17.5402H45.8939V14.0482C45.8664 14.0458 45.8388 14.0435 45.8115 14.0414V13.9219H45.8939V13.4914C45.9223 13.4463 45.976 13.4146 45.9842 13.3455C45.9343 13.3182 45.8639 13.2992 45.8365 13.2526C45.7439 13.0765 46.0512 12.9028 46.1979 12.875V12.8151H46.2889C46.291 12.7888 46.2944 12.7625 46.2967 12.7359C46.2278 12.7006 46.1596 12.665 46.0915 12.6298V11.6294H45.9186C45.9435 11.7086 45.9679 11.7882 45.9925 11.8677H45.8939C45.9072 11.9428 45.9207 12.018 45.9343 12.0931H45.8279C45.8501 12.1705 45.8718 12.2476 45.8939 12.325H45.4416C45.455 12.2458 45.4686 12.1661 45.4827 12.0865H45.3759C45.395 12.0161 45.4142 11.9451 45.4336 11.8744C45.4059 11.8699 45.3786 11.8659 45.3509 11.8614H45.3342C45.3509 11.7838 45.3676 11.7065 45.3839 11.6294H45.1616C45.1458 11.6028 45.1291 11.5762 45.1127 11.5499H44.7916C44.7203 11.4635 44.6495 11.3776 44.578 11.2913H44.3228V10.1915C44.3228 9.99581 44.3047 9.75085 44.3481 9.58838C44.3662 9.51918 44.2744 9.2651 44.2987 9.21054C44.316 9.18977 44.307 9.1944 44.3481 9.19067V9.15091H44.3971C44.3999 9.13776 44.4026 9.12475 44.4055 9.11115H44.4463V9.07155H44.2987V7.44137H44.3481C44.3457 7.37651 44.3147 7.32031 44.3228 7.27592C44.3525 7.11555 44.5494 6.98686 44.7589 6.97087C44.8038 6.85459 44.6694 6.80362 44.578 6.77866C44.5437 6.71738 44.5616 6.59124 44.5616 6.50709V5.77802H44.545C44.4985 5.85126 44.4519 5.92404 44.4055 5.99713C44.4248 6.03898 44.4438 6.08083 44.4631 6.12283C44.4709 6.16213 44.3234 6.41801 44.282 6.43415C44.2794 6.43655 44.2765 6.43864 44.2738 6.44103C44.194 6.43281 44.1751 6.3929 44.1259 6.36122V5.9635H43.6898C43.6869 5.29616 43.3595 4.81594 42.8924 4.51926C42.7441 4.43959 42.5961 4.36023 42.4483 4.28072C42.3456 4.23304 42.1783 4.2175 42.111 4.14157C42.0347 4.05548 42.0213 3.9386 41.9794 3.82352C41.9927 3.7588 42.0373 3.77703 42.0454 3.7041C42.0004 3.66957 41.9735 3.6603 41.9794 3.59783C42.1783 3.5352 42.2283 3.38918 42.1522 3.20041C42.1239 3.17112 42.15 3.17635 42.177 3.14078V3.11447C42.1003 3.09669 42.0233 3.0789 41.9466 3.06156C41.9473 3.00238 41.9714 3.00402 42.0207 2.98848C42.0263 2.97517 42.0315 2.96217 42.037 2.94902C42.01 2.91135 42.0065 2.89491 41.9386 2.88908C41.9476 2.77863 42.0888 2.7323 42.0783 2.61736C42.0671 2.49735 41.9324 2.45281 41.9136 2.32577C41.9868 2.32532 42.0239 2.30873 42.0454 2.26613C42.0615 2.23654 42.0471 2.2056 42.037 2.18004C41.9979 2.15807 41.9659 2.14058 41.9056 2.13371V2.07392C41.9704 2.05464 42.0204 2.04672 42.0535 2.00143C42.0394 1.90055 41.9378 1.90967 41.9056 1.83568V0.404143C42.1281 0.36887 42.1756 0.191011 42.1031 0.0266041C42.0893 0.0176364 42.0757 0.00881821 42.0618 0C42.1245 0.15529 42.0623 0.286218 41.8806 0.318352C41.6481 0.359305 41.5863 0.136458 41.6422 0C41.4462 0.117775 41.6042 0.375745 41.7984 0.404143V1.83568C41.765 1.91236 41.6609 1.8995 41.6505 2.00771C41.6878 2.0394 41.7222 2.05957 41.7905 2.06765C41.7933 2.07183 41.7956 2.07631 41.7984 2.08095C41.7891 2.18677 41.6549 2.12982 41.6505 2.26613C41.6889 2.30155 41.7076 2.32427 41.7905 2.32577C41.7448 2.60944 41.4965 2.51424 41.7658 2.84933C41.7558 2.90224 41.7095 2.89745 41.6755 2.92914C41.6725 2.93766 41.6696 2.94678 41.6669 2.95545C41.6937 2.98848 41.6951 3.00238 41.7576 3.0085V3.06156C41.6808 3.0789 41.6042 3.09669 41.5272 3.11447C41.5326 3.1626 41.5476 3.16185 41.5765 3.18726C41.408 3.30354 41.5498 3.56674 41.7163 3.59155C41.7219 3.60934 41.7272 3.62682 41.7329 3.64446C41.6943 3.67704 41.663 3.68048 41.6586 3.7437C41.6808 3.75715 41.7025 3.77046 41.7248 3.78391C41.7083 4.25142 41.2313 4.26159 40.8941 4.4662C40.3961 4.76826 40.0008 5.25625 40.0142 5.9635H39.5786C39.5836 6.16348 39.6151 6.36376 39.4631 6.44103C39.3045 6.42578 39.3728 6.33177 39.3152 6.23552C39.2928 6.19771 39.2271 6.19322 39.241 6.12283C39.2602 6.08083 39.2792 6.03898 39.2987 5.99713C39.2521 5.92838 39.2057 5.85992 39.1587 5.79162C39.1563 5.78714 39.1533 5.78265 39.1507 5.77802C39.148 6.10728 39.1451 6.43655 39.1421 6.76551C39.0427 6.81364 38.9333 6.82739 38.9367 6.96444C39.2967 7.05905 39.3638 7.10658 39.3561 7.44137H39.4055V9.07155H39.2575V9.11115H39.2987V9.14463C39.3178 9.14643 39.3369 9.14882 39.3561 9.15091V9.19067C39.3728 9.19291 39.3894 9.19515 39.4055 9.19754C39.4194 9.2648 39.3381 9.52217 39.3561 9.58838C39.4002 9.74831 39.3811 9.99208 39.3811 10.1847V11.2913H39.1341C39.0656 11.3731 38.9972 11.4547 38.9287 11.5365C38.8548 11.5644 38.6937 11.5514 38.5915 11.5499C38.5751 11.5762 38.5585 11.6028 38.5423 11.6294H38.3202C38.3363 11.7065 38.3532 11.7838 38.3696 11.8614C38.3393 11.8635 38.3092 11.8659 38.279 11.8677C38.2765 11.8699 38.2736 11.8723 38.2707 11.8744C38.29 11.9451 38.3092 12.0161 38.3284 12.0865H38.2213C38.2353 12.1661 38.2487 12.2458 38.2627 12.325H37.8101C37.8322 12.2476 37.8542 12.1705 37.8761 12.0931H37.7693C37.7828 12.018 37.7965 11.9428 37.8101 11.8677H37.7117C37.7363 11.7882 37.7608 11.7086 37.7854 11.6294H37.613V12.623C37.5445 12.6588 37.4759 12.6939 37.4075 12.7293V12.8088C37.4403 12.8112 37.4732 12.8133 37.5062 12.8151V12.875C37.7174 12.9167 37.882 13.0348 37.8761 13.2526C37.8392 13.2849 37.8157 13.3062 37.7525 13.3189C37.739 13.3367 37.7075 13.3472 37.7198 13.3854C37.7292 13.4141 37.795 13.467 37.8101 13.4914V13.9219H37.8925V14.0414H37.8187C37.8157 15.2074 37.8131 16.3739 37.8101 17.5402H37.8761V17.6659H37.7937V18.1098H37.8431C37.8157 18.1673 37.7884 18.2248 37.7608 18.2822V18.8122C37.8717 18.8997 38.2383 19.1517 38.0654 19.3422C38.0923 19.3688 38.1202 19.3954 38.1475 19.422C38.1687 19.4388 38.2181 19.4373 38.2627 19.4352C38.2627 19.6169 38.282 19.7866 38.3119 19.919H38.3532V26.5585H38.2296V27.8107C38.27 27.8797 38.3051 27.9684 38.3202 28.0694C38.3266 28.1129 38.2884 28.1198 38.2954 28.1486C38.384 28.5209 38.3214 29.0671 38.3202 29.4806H37.8348V29.5401H37.8842V30.6602C37.9805 30.7199 38.138 30.7162 38.3202 30.7129V31.0775C38.2025 31.0674 38.116 30.9592 38.0571 30.8989C38.1182 30.8664 38.2068 30.9383 38.2627 30.9583C38.2516 30.9385 38.2406 30.9186 38.2296 30.8989C38.2433 30.8832 38.2569 30.8678 38.2707 30.8524C38.2323 30.85 38.1942 30.8479 38.1556 30.8458C38.1666 30.8172 38.1778 30.7883 38.1883 30.7596C38.1448 30.7883 38.1006 30.8172 38.0571 30.8458C38.0614 30.7853 38.0566 30.7516 38.0075 30.7328C37.9691 30.7191 37.9249 30.7315 37.8925 30.7397C37.8656 30.7758 37.8604 30.8074 37.8678 30.8588C37.9421 30.9113 38.0372 30.9474 38.1145 30.9981C38.1448 31.0311 38.1747 31.0646 38.205 31.0975C38.2224 31.1105 38.318 31.1153 38.3202 31.1174V32.6015V36.1798C38.2846 36.1931 38.2487 36.2062 38.213 36.2195C38.216 36.4428 38.2186 36.666 38.2213 36.8891C38.0797 36.9142 37.8451 36.903 37.8101 36.8029C37.787 36.7368 37.8823 36.7115 37.9338 36.6834H37.9501V36.677C37.8324 36.6879 37.7958 36.7346 37.7033 36.7628C37.6786 36.7562 37.6538 36.7495 37.6293 36.7429C37.6026 36.7095 37.5562 36.6414 37.5883 36.5841C37.6388 36.4726 37.748 36.5325 37.8761 36.4978C37.8842 36.4956 37.8925 36.4933 37.9008 36.4911C37.9108 36.4573 37.9111 36.4527 37.9089 36.4117C37.8357 36.3675 37.7569 36.3424 37.6211 36.3454V36.3389C37.6679 36.324 37.6826 36.3074 37.7117 36.2792C37.6983 36.1946 37.5426 36.1599 37.4486 36.1467C37.3957 36.1733 37.3117 36.1793 37.2756 36.2195C37.2463 36.2446 37.2411 36.2712 37.2511 36.3122C37.2539 36.317 37.2564 36.3215 37.2594 36.3255C37.1863 36.3756 37.1085 36.3585 37.0535 36.425C37.0564 36.4406 37.0593 36.4558 37.0618 36.4714C37.1054 36.5189 37.1962 36.5013 37.2265 36.5642C37.2875 36.6909 37.1759 36.7658 37.0535 36.7231C37.0544 36.7843 37.0443 36.8216 37.0291 36.8624C36.974 36.8903 36.9111 36.9032 36.8316 36.8824C36.8124 36.8689 36.7933 36.8558 36.774 36.8425C36.7648 36.8041 36.7716 36.7716 36.7825 36.7364C36.7427 36.7547 36.6997 36.7733 36.6508 36.7495C36.4712 36.6864 36.584 36.4841 36.7578 36.4781C36.7605 36.4714 36.763 36.4649 36.766 36.4582C36.7195 36.3787 36.6297 36.3836 36.5521 36.3322C36.6616 36.2144 36.5052 36.1851 36.3958 36.1334C36.3589 36.1729 36.2896 36.1984 36.2233 36.2129C36.1877 36.2552 36.1984 36.2922 36.2477 36.3191C36.1739 36.3664 36.0627 36.3533 36.0178 36.425C36.0147 36.447 36.012 36.4691 36.0093 36.4911C36.083 36.5074 36.1577 36.5143 36.2147 36.5312C36.2347 36.5754 36.2698 36.6162 36.2477 36.677C36.2192 36.7353 36.1556 36.7657 36.0503 36.7628C36.0521 36.8051 36.0487 36.8284 36.0257 36.8491C35.9947 36.8979 35.8583 36.9112 35.8039 36.8689C35.7604 36.85 35.7509 36.8195 35.7544 36.7628C35.6879 36.7631 35.6585 36.7544 35.6147 36.7429C35.574 36.6978 35.5326 36.6205 35.5817 36.5575C35.6126 36.5033 35.6763 36.4944 35.7544 36.4781C35.7572 36.467 35.7598 36.4558 35.7625 36.4448C35.7036 36.3778 35.634 36.3829 35.557 36.3322C35.5788 36.3044 35.5906 36.289 35.59 36.2394C35.5362 36.1949 35.4596 36.1603 35.3926 36.1269C35.3379 36.1802 35.247 36.1811 35.2035 36.2461C35.2027 36.2959 35.2109 36.3105 35.2531 36.3255C35.1526 36.3832 35.065 36.3431 35.0144 36.4448C35.057 36.4863 35.1611 36.4757 35.2035 36.5177C35.3156 36.6287 35.2027 36.7657 35.0308 36.7628C35.0254 36.7939 35.0198 36.825 35.0144 36.8558C34.9544 36.8848 34.8869 36.8818 34.8086 36.8689C34.7721 36.8302 34.7635 36.8266 34.7674 36.7628C34.7064 36.7766 34.6509 36.7579 34.6032 36.7429C34.559 36.6881 34.5391 36.5715 34.6196 36.5312C34.652 36.5087 34.7162 36.5122 34.7594 36.4978C34.7873 36.4839 34.7897 36.4723 34.7923 36.4383C34.7527 36.3643 34.6487 36.3385 34.529 36.3322C34.5263 36.3277 34.5239 36.3232 34.5209 36.3191C34.5608 36.3002 34.5705 36.2917 34.5703 36.2394C34.5241 36.1996 34.465 36.1614 34.3892 36.1467V37.1673C34.3399 37.2091 34.2908 37.2511 34.2412 37.293C34.2565 37.3299 34.2709 37.32 34.2742 37.3725C34.3451 37.3817 34.3354 37.4169 34.3809 37.4321C34.4659 37.4343 34.551 37.4366 34.6359 37.4387C34.7304 37.4795 34.712 37.5633 34.7017 37.6576C34.8428 37.7273 34.8007 37.9485 34.8007 38.1278V39.4403C34.7844 39.4509 34.7891 39.4491 34.7594 39.4534C34.7627 39.4987 34.7813 39.4963 34.7923 39.5196C34.8245 39.5873 34.7248 39.6788 34.8007 39.7779C34.7909 39.8188 34.8045 39.8233 34.8581 39.8175C34.8705 39.8679 34.8729 39.923 34.8251 39.9569C34.8325 40.0025 34.8428 39.9901 34.8661 40.0164C34.869 40.2593 34.8718 40.5025 34.8747 40.7452V42.2959C34.8581 42.3093 34.8416 42.3223 34.8251 42.3356C34.8278 42.3974 34.8307 42.4594 34.8333 42.5213C34.7662 42.6054 34.751 42.5821 34.7513 42.7399C34.446 42.6177 33.8525 42.4763 33.904 42.1104C33.9289 42.1037 33.9534 42.0972 33.9782 42.0905C33.9807 42.0661 33.9836 42.0419 33.9866 42.0174C33.9602 41.9968 33.9479 41.9871 33.904 41.9777V41.9515C33.9866 41.9336 34.0686 41.9158 34.1508 41.8983C34.1703 41.8733 34.1876 41.8526 34.1754 41.8191C34.1361 41.7554 34.019 41.7735 33.9616 41.726C33.9283 41.698 33.9681 41.6478 33.9452 41.6067C33.9207 41.587 33.896 41.5671 33.8715 41.5474C33.8106 41.4082 34.0249 41.1688 33.9946 41.0633C33.926 40.9552 33.8576 40.8468 33.7889 40.7388C33.7836 40.7367 33.7781 40.7344 33.7725 40.7322C33.7122 40.8468 33.6518 40.9621 33.5918 41.0766C33.6274 41.1763 33.6629 41.2753 33.6985 41.3749C33.7197 41.5013 33.6405 41.5826 33.6408 41.726C33.5751 41.7458 33.5094 41.7657 33.4437 41.7859C33.416 41.8153 33.4017 41.821 33.4026 41.8784C33.4562 41.9234 33.5549 41.9548 33.6575 41.9579C33.6599 41.9671 33.6629 41.9756 33.6655 41.9845C33.6436 41.9913 33.6216 41.998 33.6 42.0043V42.0775C33.6174 42.1017 33.6322 42.1056 33.6739 42.1104C33.6717 42.4249 33.5141 42.4371 33.2627 42.5346C33.1202 42.6033 32.9775 42.6713 32.8351 42.7399C32.3835 42.9994 31.8522 43.527 31.8647 44.1514H31.6753C31.6566 44.0338 31.5605 43.8613 31.3714 43.9063C31.2632 43.9408 31.2141 44.0496 31.1987 44.1577H31.0753V44.3433C31.2209 44.3568 31.262 44.4832 31.207 44.5955C31.1693 44.617 31.1029 44.6536 31.0343 44.6285C30.9242 44.5959 30.8921 44.427 30.8615 44.3371H30.8532C30.7619 44.4081 30.8035 44.4726 30.7711 44.5819C30.6941 44.6224 30.5543 44.6452 30.4913 44.5751C30.4542 44.4707 30.4889 44.3774 30.5983 44.3501C30.6207 44.3121 30.6171 44.236 30.6148 44.1777H30.508C30.5017 44.0474 30.4277 43.9338 30.2776 43.9196V44.8869C30.1764 44.918 30.1241 44.9388 30.1296 45.0591C30.2166 45.1302 30.4354 45.1325 30.4669 45.2247C30.48 45.2709 30.4316 45.303 30.4256 45.3642C30.4339 45.3682 30.442 45.3727 30.4504 45.3773C30.4752 45.3792 30.5 45.3816 30.5243 45.384V45.4169C30.549 45.4192 30.5737 45.4216 30.5983 45.4236C30.5983 45.4905 30.5814 45.5283 30.5654 45.5628V48.2797V48.7367C30.5598 48.7654 30.5546 48.7943 30.549 48.8227C30.5876 48.8629 30.6255 48.9025 30.6643 48.9423C30.7043 49.0714 30.6102 49.2328 30.7628 49.3066C30.7929 49.3001 30.8229 49.2933 30.8532 49.2866V49.6443C30.8877 49.7873 30.8699 49.9901 30.8699 50.1548V51.1156V51.8644C30.8547 51.9152 30.8139 51.9292 30.8121 52.0105H30.7138C30.6805 52.0484 30.6768 52.104 30.6805 52.1761C30.634 52.1939 30.5876 52.2111 30.5407 52.2288V52.5208C30.5625 52.5486 30.5847 52.5777 30.6065 52.607C30.6258 52.6625 30.5767 52.6686 30.5654 52.6931V52.9511C30.3728 52.9495 30.151 52.9366 30.0392 52.9976C30.0421 53.0064 30.0445 53.0154 30.0474 53.0245C30.0667 53.0264 30.0858 53.0288 30.1051 53.0306V53.0837C30.2297 53.1097 30.533 53.2515 30.442 53.4218C30.425 53.4542 30.3756 53.4431 30.3844 53.5078C30.4122 53.7066 30.5378 53.8672 30.73 53.932C30.7388 53.9516 30.722 54.0686 30.7218 54.1375H25.9932V54.5351H24.6197V54.9189H23.2466V55.3035H60.4577V54.9189H59.0846Z" fill="white"/>
</svg>
