<svg width="181" height="49" viewBox="0 0 181 49" fill="none" xmlns="http://www.w3.org/2000/svg">
<path d="M0 48V1.45454H12.6364V37.8182H31.4545V48H0ZM79.8409 24.7273C79.8409 29.9091 78.8333 34.2803 76.8182 37.8409C74.803 41.3864 72.0833 44.0758 68.6591 45.9091C65.2348 47.7273 61.4167 48.6364 57.2045 48.6364C52.9621 48.6364 49.1288 47.7197 45.7045 45.8864C42.2955 44.0379 39.5833 41.3409 37.5682 37.7955C35.5682 34.2348 34.5682 29.8788 34.5682 24.7273C34.5682 19.5455 35.5682 15.1818 37.5682 11.6364C39.5833 8.07576 42.2955 5.38636 45.7045 3.56818C49.1288 1.73485 52.9621 0.81818 57.2045 0.81818C61.4167 0.81818 65.2348 1.73485 68.6591 3.56818C72.0833 5.38636 74.803 8.07576 76.8182 11.6364C78.8333 15.1818 79.8409 19.5455 79.8409 24.7273ZM66.8409 24.7273C66.8409 21.9394 66.4697 19.5909 65.7273 17.6818C65 15.7576 63.9167 14.303 62.4773 13.3182C61.053 12.3182 59.2955 11.8182 57.2045 11.8182C55.1136 11.8182 53.3485 12.3182 51.9091 13.3182C50.4848 14.303 49.4015 15.7576 48.6591 17.6818C47.9318 19.5909 47.5682 21.9394 47.5682 24.7273C47.5682 27.5152 47.9318 29.8712 48.6591 31.7955C49.4015 33.7045 50.4848 35.1591 51.9091 36.1591C53.3485 37.1439 55.1136 37.6364 57.2045 37.6364C59.2955 37.6364 61.053 37.1439 62.4773 36.1591C63.9167 35.1591 65 33.7045 65.7273 31.7955C66.4697 29.8712 66.8409 27.5152 66.8409 24.7273ZM115.915 16.8182C115.718 16.0152 115.407 15.3106 114.983 14.7045C114.559 14.0833 114.028 13.5606 113.392 13.1364C112.771 12.697 112.044 12.3712 111.21 12.1591C110.392 11.9318 109.491 11.8182 108.506 11.8182C106.384 11.8182 104.574 12.3258 103.074 13.3409C101.589 14.3561 100.453 15.8182 99.6648 17.7273C98.892 19.6364 98.5057 21.9394 98.5057 24.6364C98.5057 27.3636 98.8769 29.697 99.6193 31.6364C100.362 33.5758 101.468 35.0606 102.938 36.0909C104.407 37.1212 106.233 37.6364 108.415 37.6364C110.339 37.6364 111.938 37.3561 113.21 36.7955C114.498 36.2348 115.46 35.4394 116.097 34.4091C116.733 33.3788 117.051 32.1667 117.051 30.7727L119.233 31H108.597V22H129.233V28.4545C129.233 32.697 128.331 36.3258 126.528 39.3409C124.741 42.3409 122.271 44.6439 119.119 46.25C115.983 47.8409 112.384 48.6364 108.324 48.6364C103.794 48.6364 99.8163 47.6742 96.392 45.75C92.9678 43.8258 90.2936 41.0833 88.3693 37.5227C86.4602 33.9621 85.5057 29.7273 85.5057 24.8182C85.5057 20.9697 86.089 17.5606 87.2557 14.5909C88.4375 11.6212 90.0739 9.11364 92.1648 7.06818C94.2557 5.00757 96.6723 3.45454 99.4148 2.40909C102.157 1.34848 105.097 0.81818 108.233 0.81818C110.991 0.81818 113.551 1.21212 115.915 2C118.294 2.77273 120.392 3.87879 122.21 5.31818C124.044 6.74242 125.521 8.43182 126.642 10.3864C127.763 12.3409 128.445 14.4848 128.688 16.8182H115.915ZM180.216 24.7273C180.216 29.9091 179.208 34.2803 177.193 37.8409C175.178 41.3864 172.458 44.0758 169.034 45.9091C165.61 47.7273 161.792 48.6364 157.58 48.6364C153.337 48.6364 149.504 47.7197 146.08 45.8864C142.67 44.0379 139.958 41.3409 137.943 37.7955C135.943 34.2348 134.943 29.8788 134.943 24.7273C134.943 19.5455 135.943 15.1818 137.943 11.6364C139.958 8.07576 142.67 5.38636 146.08 3.56818C149.504 1.73485 153.337 0.81818 157.58 0.81818C161.792 0.81818 165.61 1.73485 169.034 3.56818C172.458 5.38636 175.178 8.07576 177.193 11.6364C179.208 15.1818 180.216 19.5455 180.216 24.7273ZM167.216 24.7273C167.216 21.9394 166.845 19.5909 166.102 17.6818C165.375 15.7576 164.292 14.303 162.852 13.3182C161.428 12.3182 159.67 11.8182 157.58 11.8182C155.489 11.8182 153.723 12.3182 152.284 13.3182C150.86 14.303 149.777 15.7576 149.034 17.6818C148.307 19.5909 147.943 21.9394 147.943 24.7273C147.943 27.5152 148.307 29.8712 149.034 31.7955C149.777 33.7045 150.86 35.1591 152.284 36.1591C153.723 37.1439 155.489 37.6364 157.58 37.6364C159.67 37.6364 161.428 37.1439 162.852 36.1591C164.292 35.1591 165.375 33.7045 166.102 31.7955C166.845 29.8712 167.216 27.5152 167.216 24.7273Z" fill="#41CB83"/>
</svg>
